<mxfile host="app.diagrams.net" agent="Mozilla/5.0 (X11; Linux x86_64) AppleWebKit/537.36 (KHTML, like Gecko) Chrome/129.0.0.0 Safari/537.36 Edg/129.0.0.0" version="24.8.3">
  <diagram name="Página-1" id="oaUFjEkQnuIA49WrFgfH">
    <mxGraphModel dx="1146" dy="700" grid="1" gridSize="10" guides="1" tooltips="1" connect="1" arrows="1" fold="1" page="1" pageScale="1" pageWidth="827" pageHeight="1169" math="0" shadow="0">
      <root>
        <mxCell id="0" />
        <mxCell id="1" parent="0" />
        <mxCell id="oklClrqF9eYQHrDHP0GC-35" value="" style="whiteSpace=wrap;html=1;" vertex="1" parent="1">
          <mxGeometry x="290" y="60" width="1080" height="970" as="geometry" />
        </mxCell>
        <mxCell id="oklClrqF9eYQHrDHP0GC-4" value="Usuário" style="shape=umlActor;verticalLabelPosition=bottom;verticalAlign=top;html=1;" vertex="1" parent="1">
          <mxGeometry x="180" y="200" width="30" height="60" as="geometry" />
        </mxCell>
        <mxCell id="oklClrqF9eYQHrDHP0GC-7" value="Gerente" style="shape=umlActor;verticalLabelPosition=bottom;verticalAlign=top;html=1;" vertex="1" parent="1">
          <mxGeometry x="90" y="580" width="30" height="60" as="geometry" />
        </mxCell>
        <mxCell id="oklClrqF9eYQHrDHP0GC-8" value="Funcionário" style="shape=umlActor;verticalLabelPosition=bottom;verticalAlign=top;html=1;" vertex="1" parent="1">
          <mxGeometry x="180" y="340" width="30" height="60" as="geometry" />
        </mxCell>
        <mxCell id="oklClrqF9eYQHrDHP0GC-9" value="Operador de Caixa" style="shape=umlActor;verticalLabelPosition=bottom;verticalAlign=top;html=1;" vertex="1" parent="1">
          <mxGeometry x="90" y="460" width="30" height="60" as="geometry" />
        </mxCell>
        <mxCell id="oklClrqF9eYQHrDHP0GC-18" style="edgeStyle=orthogonalEdgeStyle;rounded=0;orthogonalLoop=1;jettySize=auto;html=1;exitX=0.5;exitY=0.5;exitDx=0;exitDy=0;exitPerimeter=0;entryX=0.5;entryY=0.5;entryDx=0;entryDy=0;entryPerimeter=0;" edge="1" parent="1" source="oklClrqF9eYQHrDHP0GC-8" target="oklClrqF9eYQHrDHP0GC-4">
          <mxGeometry relative="1" as="geometry">
            <Array as="points">
              <mxPoint x="195" y="300" />
              <mxPoint x="195" y="300" />
            </Array>
          </mxGeometry>
        </mxCell>
        <mxCell id="oklClrqF9eYQHrDHP0GC-22" style="edgeStyle=orthogonalEdgeStyle;rounded=0;orthogonalLoop=1;jettySize=auto;html=1;exitX=0.5;exitY=0.5;exitDx=0;exitDy=0;exitPerimeter=0;entryX=0.5;entryY=0.5;entryDx=0;entryDy=0;entryPerimeter=0;" edge="1" parent="1" source="oklClrqF9eYQHrDHP0GC-7" target="oklClrqF9eYQHrDHP0GC-8">
          <mxGeometry relative="1" as="geometry" />
        </mxCell>
        <mxCell id="oklClrqF9eYQHrDHP0GC-24" style="edgeStyle=orthogonalEdgeStyle;rounded=0;orthogonalLoop=1;jettySize=auto;html=1;exitX=0.5;exitY=0.5;exitDx=0;exitDy=0;exitPerimeter=0;entryX=0.5;entryY=0.5;entryDx=0;entryDy=0;entryPerimeter=0;" edge="1" parent="1" source="oklClrqF9eYQHrDHP0GC-9" target="oklClrqF9eYQHrDHP0GC-8">
          <mxGeometry relative="1" as="geometry" />
        </mxCell>
        <mxCell id="oklClrqF9eYQHrDHP0GC-26" value="Admin" style="shape=umlActor;verticalLabelPosition=bottom;verticalAlign=top;html=1;" vertex="1" parent="1">
          <mxGeometry x="30" y="670" width="30" height="60" as="geometry" />
        </mxCell>
        <mxCell id="oklClrqF9eYQHrDHP0GC-30" value="Operador de Estoque" style="shape=umlActor;verticalLabelPosition=bottom;verticalAlign=top;html=1;" vertex="1" parent="1">
          <mxGeometry x="90" y="740" width="30" height="60" as="geometry" />
        </mxCell>
        <mxCell id="oklClrqF9eYQHrDHP0GC-31" style="edgeStyle=orthogonalEdgeStyle;rounded=0;orthogonalLoop=1;jettySize=auto;html=1;exitX=0.5;exitY=0.5;exitDx=0;exitDy=0;exitPerimeter=0;entryX=0.5;entryY=0.5;entryDx=0;entryDy=0;entryPerimeter=0;" edge="1" parent="1" source="oklClrqF9eYQHrDHP0GC-30" target="oklClrqF9eYQHrDHP0GC-8">
          <mxGeometry relative="1" as="geometry" />
        </mxCell>
        <mxCell id="oklClrqF9eYQHrDHP0GC-32" style="edgeStyle=orthogonalEdgeStyle;rounded=0;orthogonalLoop=1;jettySize=auto;html=1;exitX=0.5;exitY=0.5;exitDx=0;exitDy=0;exitPerimeter=0;entryX=0.5;entryY=0.5;entryDx=0;entryDy=0;entryPerimeter=0;" edge="1" parent="1" source="oklClrqF9eYQHrDHP0GC-26" target="oklClrqF9eYQHrDHP0GC-7">
          <mxGeometry relative="1" as="geometry" />
        </mxCell>
        <mxCell id="oklClrqF9eYQHrDHP0GC-38" value="Log in" style="ellipse;whiteSpace=wrap;html=1;" vertex="1" parent="1">
          <mxGeometry x="440" y="100" width="140" height="70" as="geometry" />
        </mxCell>
        <mxCell id="oklClrqF9eYQHrDHP0GC-47" value="" style="endArrow=none;html=1;rounded=0;exitX=0.5;exitY=0.5;exitDx=0;exitDy=0;exitPerimeter=0;entryX=0;entryY=0.5;entryDx=0;entryDy=0;" edge="1" parent="1" source="oklClrqF9eYQHrDHP0GC-4" target="oklClrqF9eYQHrDHP0GC-38">
          <mxGeometry width="50" height="50" relative="1" as="geometry">
            <mxPoint x="220" y="250" as="sourcePoint" />
            <mxPoint x="270" y="200" as="targetPoint" />
          </mxGeometry>
        </mxCell>
        <mxCell id="oklClrqF9eYQHrDHP0GC-48" value="Visualizar Perfil" style="ellipse;whiteSpace=wrap;html=1;" vertex="1" parent="1">
          <mxGeometry x="440" y="180" width="140" height="70" as="geometry" />
        </mxCell>
        <mxCell id="oklClrqF9eYQHrDHP0GC-49" value="" style="endArrow=none;html=1;rounded=0;entryX=0;entryY=0.5;entryDx=0;entryDy=0;exitX=0.5;exitY=0.5;exitDx=0;exitDy=0;exitPerimeter=0;" edge="1" parent="1" source="oklClrqF9eYQHrDHP0GC-4" target="oklClrqF9eYQHrDHP0GC-48">
          <mxGeometry width="50" height="50" relative="1" as="geometry">
            <mxPoint x="190" y="230" as="sourcePoint" />
            <mxPoint x="450" y="145" as="targetPoint" />
          </mxGeometry>
        </mxCell>
        <mxCell id="oklClrqF9eYQHrDHP0GC-50" value="Alterar Dados" style="ellipse;whiteSpace=wrap;html=1;" vertex="1" parent="1">
          <mxGeometry x="687" y="180" width="140" height="70" as="geometry" />
        </mxCell>
        <mxCell id="oklClrqF9eYQHrDHP0GC-52" value="&amp;lt;&amp;lt;extend&amp;gt;&amp;gt;" style="html=1;verticalAlign=bottom;labelBackgroundColor=none;endArrow=open;endFill=0;dashed=1;rounded=0;entryX=1;entryY=0.5;entryDx=0;entryDy=0;exitX=0;exitY=0.5;exitDx=0;exitDy=0;" edge="1" parent="1" source="oklClrqF9eYQHrDHP0GC-50" target="oklClrqF9eYQHrDHP0GC-48">
          <mxGeometry width="160" relative="1" as="geometry">
            <mxPoint x="580" y="280" as="sourcePoint" />
            <mxPoint x="740" y="280" as="targetPoint" />
          </mxGeometry>
        </mxCell>
      </root>
    </mxGraphModel>
  </diagram>
</mxfile>
